<svg width="25" height="25" viewBox="0 0 25 25" fill="none" xmlns="http://www.w3.org/2000/svg">
<g id="Vector">
<path id="Vector_2" d="M12.4998 10.3184V14.9656H18.9579C18.6743 16.4602 17.8233 17.7257 16.547 18.5766L20.4415 21.5984C22.7106 19.5039 24.0197 16.4276 24.0197 12.773C24.0197 11.9221 23.9433 11.1039 23.8015 10.3185L12.4998 10.3184Z" fill="#4285F4"/>
<path id="Vector_3" d="M5.77461 14.7842L4.89625 15.4566L1.78711 17.8783C3.76165 21.7947 7.80862 24.5002 12.4995 24.5002C15.7394 24.5002 18.4557 23.4311 20.4412 21.5984L16.5467 18.5765C15.4776 19.2965 14.114 19.7329 12.4995 19.7329C9.37951 19.7329 6.72868 17.6275 5.77952 14.7911L5.77461 14.7842Z" fill="#34A853"/>
<path id="Vector_4" d="M1.78718 7.12207C0.969042 8.73655 0.5 10.5584 0.5 12.5002C0.5 14.442 0.969042 16.2638 1.78718 17.8783C1.78718 17.8891 5.77997 14.7801 5.77997 14.7801C5.53998 14.0601 5.39812 13.2965 5.39812 12.5001C5.39812 11.7036 5.53998 10.94 5.77997 10.22L1.78718 7.12207Z" fill="#FBBC05"/>
<path id="Vector_5" d="M12.4997 5.27818C14.267 5.27818 15.8379 5.88907 17.0925 7.06727L20.5288 3.63095C18.4452 1.68917 15.7398 0.5 12.4997 0.5C7.80887 0.5 3.76165 3.19454 1.78711 7.12183L5.77978 10.22C6.72882 7.38362 9.37976 5.27818 12.4997 5.27818Z" fill="#EA4335"/>
</g>
</svg>
